# xmcd
# 
# Track frame offsets:
#     150
#     28039
#     77781
#     99274
#     127572
#     172368
#     210691
#     272944
# 
# Disc length: 4110
# 
# Revision: 0
# Processed by: cddbd v1.5.2PL0 Copyright (c) Steve Scherf et al.
# Submitted via: fre:ac v1.1beta1pre4
# 
DISCID=68100c08
DTITLE=Tedeschi Trucks Band - 20170730 Red Rocks D1
DYEAR=2017
DGENRE=Blues
TTITLE0=Laugh About It
TTITLE1=Anyday
TTITLE2=Right On
TTITLE3=I Want More
TTITLE4=Get Out Of My Life
TTITLE5=Sky Is Crying
TTITLE6=Idle Wind
TTITLE7=Sweet Virginia
EXTD=
EXTT0=
EXTT1=
EXTT2=
EXTT3=
EXTT4=
EXTT5=
EXTT6=
EXTT7=
PLAYORDER=
